<svg xmlns="http://www.w3.org/2000/svg" width="32" height="64" viewBox="0 0 32 64" aria-labelledby="title">
  <view id="twitter-view" viewBox="0 0 32 32" />
  <view id="dribbble-view" viewBox="0 32 32 32" />

  <g id="twitter">
    <style>
      .blured {
          filter: blur(2px);
      }
    </style>
    <title id="title">Twitter icon</title>
    <circle fill="#00ACEE" cx="16" cy="16" r="16" />
    <path fill="white" class="blured"
      d="M24.7,13.8c0,0-3.6-10-8.9-1.2c-0.5,0-8.3-3-8.3-3s5,8.9,5.3,9.2c0.4,2.1-8.2,1.3-8.2,1.3s7,5.4,13.8,3.6 c3.3,0,7.3-8,7.3-8l2.3-0.8L24.7,13.8z" >
      <animateTransform
        attributeName="transform"
        attributeType="XML"
        type="rotate"
        from="0 16 16"
        to="360 16 16"
        dur="5s"
        repeatCount="indefinite"
      />
    </path>
  </g>

  <g id="dribbble" transform="translate(0 32)">
    <title id="tittle">dribbble icon</title>
    <circle fill="white" cx="16" cy="16" r="16" />
    <circle fill="#EA4C89" stroke="#C32361" stroke-width="2" cx="16.2" cy="16.1" r="10.6" />
    <path fill="none" stroke="#C32361" stroke-width="2" d="M21.3,25.4c-1.2-9.5-9.8-18.7-9.8-18.7" />
    <path fill="none" stroke="#C32361" stroke-width="2" d="M5.8,14.5C17.9,17,22.7,7.8,22.7,7.8" />
    <path fill="none" stroke="#C32361" stroke-width="2" d="M8.3,23.2c6.1-9.8,18.5-6.6,18.5-6.6" />
  </g>
</svg>
